<svg version="1.1" id="Layer_1" xmlns="http://www.w3.org/2000/svg" x="0" y="0" viewBox="0 0 64 64" style="enable-background:new 0 0 64 64" xml:space="preserve"><style>.st11,.st2{fill:#ec407a;stroke:#0277bd;stroke-linecap:round;stroke-linejoin:round;stroke-miterlimit:10}.st11{fill:#eee}</style><g id="Calendar"><path d="M57 63H7c-1.7 0-3-1.3-3-3V11.5c0-1.7 1.3-3 3-3h50c1.7 0 3 1.3 3 3V60c0 1.7-1.3 3-3 3z" style="fill:#81d4fa;stroke:#0277bd;stroke-linecap:round;stroke-linejoin:round;stroke-miterlimit:10"/><path d="M60 23H4V11.5c0-1.7 1.3-3 3-3h50c1.7 0 3 1.3 3 3V23z" style="fill:#ffa726;stroke:#0277bd;stroke-linecap:round;stroke-linejoin:round;stroke-miterlimit:10"/><path class="st2" d="M17 37h-6v-5c0-.6.4-1 1-1h5v6z"/><path class="st11" d="M17 31h6v6h-6zM23 31h6v6h-6zM29 31h6v6h-6zM41 37h-6v-6h5c.6 0 1 .4 1 1v5z"/><path class="st2" d="M11 37h6v6h-6z"/><path class="st11" d="M17 37h6v6h-6zM23 37h6v6h-6zM29 37h6v6h-6zM35 37h6v6h-6z"/><path class="st2" d="M11 43h6v6h-6z"/><path class="st11" d="M17 43h6v6h-6zM23 43h6v6h-6zM29 43h6v6h-6zM35 43h6v6h-6z"/><path class="st2" d="M17 55h-5c-.6 0-1-.4-1-1v-5h6v6z"/><path class="st11" d="M17 49h6v6h-6zM23 49h6v6h-6zM29 49h6v6h-6zM40 55h-5v-6h6v5c0 .6-.4 1-1 1zM41 31h6v6h-6zM53 37h-6v-6h5c.6 0 1 .4 1 1v5zM41 37h6v6h-6zM47 37h6v6h-6zM41 43h6v6h-6zM47 43h6v6h-6zM41 49h6v6h-6zM52 55h-5v-6h6v5c0 .6-.4 1-1 1z"/><circle class="st11" cx="13" cy="15.2" r="3"/><circle class="st11" cx="52" cy="14.7" r="3"/><circle class="st11" cx="39" cy="15.2" r="3"/><circle class="st11" cx="26" cy="15.2" r="3"/><path style="fill:none;stroke:#29b6f6;stroke-linecap:round;stroke-linejoin:round;stroke-miterlimit:10" d="M7 61h50"/><path style="fill:none;stroke:#e1f5fe;stroke-linecap:round;stroke-linejoin:round;stroke-miterlimit:10" d="M7 25h50"/><path style="fill:none;stroke:#f57c00;stroke-linecap:round;stroke-linejoin:round;stroke-miterlimit:10" d="M7 21h50"/><path style="fill:none;stroke:#ffcc80;stroke-linecap:round;stroke-linejoin:round;stroke-miterlimit:10" d="M7 10.5h50"/><path class="st11" d="M13 16h0c-.8 0-1.5-.7-1.5-1.5v-12c0-.8.7-1.5 1.5-1.5h0c.8 0 1.5.7 1.5 1.5v12c0 .8-.7 1.5-1.5 1.5zM52 16h0c-.8 0-1.5-.7-1.5-1.5v-12c0-.8.7-1.5 1.5-1.5h0c.8 0 1.5.7 1.5 1.5v12c0 .8-.7 1.5-1.5 1.5zM39 16h0c-.8 0-1.5-.7-1.5-1.5v-12c0-.8.7-1.5 1.5-1.5h0c.8 0 1.5.7 1.5 1.5v12c0 .8-.7 1.5-1.5 1.5zM26 16h0c-.8 0-1.5-.7-1.5-1.5v-12c0-.8.7-1.5 1.5-1.5h0c.8 0 1.5.7 1.5 1.5v12c0 .8-.7 1.5-1.5 1.5z"/></g></svg>